<mxfile host="app.diagrams.net" modified="2023-12-06T22:36:23.638Z" agent="Mozilla/5.0 (Windows NT 10.0; Win64; x64) AppleWebKit/537.36 (KHTML, like Gecko) Chrome/120.0.0.0 Safari/537.36" etag="2VB6jSBrrCiCmyJc3sMr" version="22.1.7" type="onedrive">
  <diagram name="Trang-1" id="6_ooBvGmaJRmDq8_x6Is">
    <mxGraphModel dx="764" dy="1186" grid="1" gridSize="10" guides="1" tooltips="1" connect="1" arrows="1" fold="1" page="1" pageScale="1" pageWidth="827" pageHeight="1169" math="0" shadow="0">
      <root>
        <mxCell id="0" />
        <mxCell id="1" parent="0" />
        <mxCell id="SjPjZXcvxQbz7Kt5EvCA-3" style="edgeStyle=orthogonalEdgeStyle;rounded=0;orthogonalLoop=1;jettySize=auto;html=1;" edge="1" parent="1" source="SjPjZXcvxQbz7Kt5EvCA-1">
          <mxGeometry relative="1" as="geometry">
            <mxPoint x="400" y="160" as="targetPoint" />
          </mxGeometry>
        </mxCell>
        <mxCell id="SjPjZXcvxQbz7Kt5EvCA-1" value="Start" style="ellipse;whiteSpace=wrap;html=1;" vertex="1" parent="1">
          <mxGeometry x="340" y="40" width="120" height="80" as="geometry" />
        </mxCell>
        <mxCell id="SjPjZXcvxQbz7Kt5EvCA-5" style="edgeStyle=orthogonalEdgeStyle;rounded=0;orthogonalLoop=1;jettySize=auto;html=1;" edge="1" parent="1" source="SjPjZXcvxQbz7Kt5EvCA-4" target="SjPjZXcvxQbz7Kt5EvCA-6">
          <mxGeometry relative="1" as="geometry">
            <mxPoint x="400" y="270" as="targetPoint" />
          </mxGeometry>
        </mxCell>
        <mxCell id="SjPjZXcvxQbz7Kt5EvCA-4" value="Struct ( name[50], age, phoneNumber[15], email[50] )&lt;br&gt;quantity, buffer" style="shape=parallelogram;perimeter=parallelogramPerimeter;whiteSpace=wrap;html=1;fixedSize=1;" vertex="1" parent="1">
          <mxGeometry x="305" y="160" width="190" height="60" as="geometry" />
        </mxCell>
        <mxCell id="SjPjZXcvxQbz7Kt5EvCA-7" style="edgeStyle=orthogonalEdgeStyle;rounded=0;orthogonalLoop=1;jettySize=auto;html=1;" edge="1" parent="1" source="SjPjZXcvxQbz7Kt5EvCA-6">
          <mxGeometry relative="1" as="geometry">
            <mxPoint x="400" y="360" as="targetPoint" />
          </mxGeometry>
        </mxCell>
        <mxCell id="SjPjZXcvxQbz7Kt5EvCA-6" value="quantity = ....." style="rounded=0;whiteSpace=wrap;html=1;" vertex="1" parent="1">
          <mxGeometry x="335" y="260" width="130" height="60" as="geometry" />
        </mxCell>
        <mxCell id="SjPjZXcvxQbz7Kt5EvCA-9" style="edgeStyle=orthogonalEdgeStyle;rounded=0;orthogonalLoop=1;jettySize=auto;html=1;" edge="1" parent="1" source="SjPjZXcvxQbz7Kt5EvCA-8">
          <mxGeometry relative="1" as="geometry">
            <mxPoint x="391.25" y="460" as="targetPoint" />
          </mxGeometry>
        </mxCell>
        <mxCell id="SjPjZXcvxQbz7Kt5EvCA-8" value="Tạo mảng&lt;br&gt;struct SinhVien danhSachSV[quantity]" style="shape=parallelogram;perimeter=parallelogramPerimeter;whiteSpace=wrap;html=1;fixedSize=1;" vertex="1" parent="1">
          <mxGeometry x="240" y="360" width="302.5" height="60" as="geometry" />
        </mxCell>
        <mxCell id="SjPjZXcvxQbz7Kt5EvCA-11" style="edgeStyle=orthogonalEdgeStyle;rounded=0;orthogonalLoop=1;jettySize=auto;html=1;" edge="1" parent="1" source="SjPjZXcvxQbz7Kt5EvCA-10">
          <mxGeometry relative="1" as="geometry">
            <mxPoint x="391.255" y="600" as="targetPoint" />
          </mxGeometry>
        </mxCell>
        <mxCell id="SjPjZXcvxQbz7Kt5EvCA-13" value="True" style="edgeLabel;html=1;align=center;verticalAlign=middle;resizable=0;points=[];" vertex="1" connectable="0" parent="SjPjZXcvxQbz7Kt5EvCA-11">
          <mxGeometry x="-0.085" y="2" relative="1" as="geometry">
            <mxPoint as="offset" />
          </mxGeometry>
        </mxCell>
        <mxCell id="SjPjZXcvxQbz7Kt5EvCA-12" style="edgeStyle=orthogonalEdgeStyle;rounded=0;orthogonalLoop=1;jettySize=auto;html=1;entryX=0;entryY=0.5;entryDx=0;entryDy=0;" edge="1" parent="1" source="SjPjZXcvxQbz7Kt5EvCA-10" target="SjPjZXcvxQbz7Kt5EvCA-42">
          <mxGeometry relative="1" as="geometry">
            <mxPoint x="146.6666259765625" y="500" as="targetPoint" />
            <Array as="points">
              <mxPoint x="150" y="500" />
              <mxPoint x="150" y="1820" />
            </Array>
          </mxGeometry>
        </mxCell>
        <mxCell id="SjPjZXcvxQbz7Kt5EvCA-10" value="i &amp;lt; quantity" style="rhombus;whiteSpace=wrap;html=1;" vertex="1" parent="1">
          <mxGeometry x="326.88" y="460" width="128.75" height="80" as="geometry" />
        </mxCell>
        <mxCell id="SjPjZXcvxQbz7Kt5EvCA-16" style="edgeStyle=orthogonalEdgeStyle;rounded=0;orthogonalLoop=1;jettySize=auto;html=1;" edge="1" parent="1" source="SjPjZXcvxQbz7Kt5EvCA-15">
          <mxGeometry relative="1" as="geometry">
            <mxPoint x="391.255" y="710" as="targetPoint" />
          </mxGeometry>
        </mxCell>
        <mxCell id="SjPjZXcvxQbz7Kt5EvCA-15" value="Nhập họ tên, tuổi, số điện thoại, email" style="rounded=0;whiteSpace=wrap;html=1;" vertex="1" parent="1">
          <mxGeometry x="291.88" y="600" width="198.75" height="70" as="geometry" />
        </mxCell>
        <mxCell id="SjPjZXcvxQbz7Kt5EvCA-18" style="edgeStyle=orthogonalEdgeStyle;rounded=0;orthogonalLoop=1;jettySize=auto;html=1;" edge="1" parent="1" source="SjPjZXcvxQbz7Kt5EvCA-17">
          <mxGeometry relative="1" as="geometry">
            <mxPoint x="386.55999999999995" y="810" as="targetPoint" />
          </mxGeometry>
        </mxCell>
        <mxCell id="SjPjZXcvxQbz7Kt5EvCA-17" value="FILE *file&lt;br&gt;Mở file" style="rounded=0;whiteSpace=wrap;html=1;" vertex="1" parent="1">
          <mxGeometry x="300" y="710" width="173.12" height="60" as="geometry" />
        </mxCell>
        <mxCell id="SjPjZXcvxQbz7Kt5EvCA-20" style="edgeStyle=orthogonalEdgeStyle;rounded=0;orthogonalLoop=1;jettySize=auto;html=1;" edge="1" parent="1" source="SjPjZXcvxQbz7Kt5EvCA-19">
          <mxGeometry relative="1" as="geometry">
            <mxPoint x="386.55999999999995" y="960" as="targetPoint" />
          </mxGeometry>
        </mxCell>
        <mxCell id="SjPjZXcvxQbz7Kt5EvCA-21" value="False" style="edgeLabel;html=1;align=center;verticalAlign=middle;resizable=0;points=[];" vertex="1" connectable="0" parent="SjPjZXcvxQbz7Kt5EvCA-20">
          <mxGeometry x="-0.0727" y="1" relative="1" as="geometry">
            <mxPoint as="offset" />
          </mxGeometry>
        </mxCell>
        <mxCell id="SjPjZXcvxQbz7Kt5EvCA-44" style="edgeStyle=orthogonalEdgeStyle;rounded=0;orthogonalLoop=1;jettySize=auto;html=1;" edge="1" parent="1" source="SjPjZXcvxQbz7Kt5EvCA-19" target="SjPjZXcvxQbz7Kt5EvCA-45">
          <mxGeometry relative="1" as="geometry">
            <mxPoint x="610" y="1610" as="targetPoint" />
          </mxGeometry>
        </mxCell>
        <mxCell id="SjPjZXcvxQbz7Kt5EvCA-19" value="file == NULL&amp;nbsp;" style="rhombus;whiteSpace=wrap;html=1;" vertex="1" parent="1">
          <mxGeometry x="346.56" y="810" width="80" height="80" as="geometry" />
        </mxCell>
        <mxCell id="SjPjZXcvxQbz7Kt5EvCA-26" style="edgeStyle=orthogonalEdgeStyle;rounded=0;orthogonalLoop=1;jettySize=auto;html=1;entryX=0.5;entryY=0;entryDx=0;entryDy=0;" edge="1" parent="1" source="SjPjZXcvxQbz7Kt5EvCA-22" target="SjPjZXcvxQbz7Kt5EvCA-25">
          <mxGeometry relative="1" as="geometry" />
        </mxCell>
        <mxCell id="SjPjZXcvxQbz7Kt5EvCA-22" value="Ghi thông tin vừa nhập file bằng fprintf" style="rounded=0;whiteSpace=wrap;html=1;" vertex="1" parent="1">
          <mxGeometry x="310" y="960" width="153.12" height="60" as="geometry" />
        </mxCell>
        <mxCell id="SjPjZXcvxQbz7Kt5EvCA-27" style="edgeStyle=orthogonalEdgeStyle;rounded=0;orthogonalLoop=1;jettySize=auto;html=1;" edge="1" parent="1" source="SjPjZXcvxQbz7Kt5EvCA-25" target="SjPjZXcvxQbz7Kt5EvCA-28">
          <mxGeometry relative="1" as="geometry">
            <mxPoint x="386.55999999999995" y="1170" as="targetPoint" />
          </mxGeometry>
        </mxCell>
        <mxCell id="SjPjZXcvxQbz7Kt5EvCA-25" value="Đóng file" style="rounded=0;whiteSpace=wrap;html=1;" vertex="1" parent="1">
          <mxGeometry x="326.56" y="1070" width="120" height="60" as="geometry" />
        </mxCell>
        <mxCell id="SjPjZXcvxQbz7Kt5EvCA-29" style="edgeStyle=orthogonalEdgeStyle;rounded=0;orthogonalLoop=1;jettySize=auto;html=1;" edge="1" parent="1" source="SjPjZXcvxQbz7Kt5EvCA-28" target="SjPjZXcvxQbz7Kt5EvCA-30">
          <mxGeometry relative="1" as="geometry">
            <mxPoint x="386.55999999999995" y="1280" as="targetPoint" />
          </mxGeometry>
        </mxCell>
        <mxCell id="SjPjZXcvxQbz7Kt5EvCA-28" value="Mở file để hiển thi lên chương trình&amp;nbsp;" style="rounded=0;whiteSpace=wrap;html=1;" vertex="1" parent="1">
          <mxGeometry x="326.55999999999995" y="1169" width="120" height="60" as="geometry" />
        </mxCell>
        <mxCell id="SjPjZXcvxQbz7Kt5EvCA-31" style="edgeStyle=orthogonalEdgeStyle;rounded=0;orthogonalLoop=1;jettySize=auto;html=1;" edge="1" parent="1" source="SjPjZXcvxQbz7Kt5EvCA-30">
          <mxGeometry relative="1" as="geometry">
            <mxPoint x="386.55999999999995" y="1430" as="targetPoint" />
          </mxGeometry>
        </mxCell>
        <mxCell id="SjPjZXcvxQbz7Kt5EvCA-32" value="False" style="edgeLabel;html=1;align=center;verticalAlign=middle;resizable=0;points=[];" vertex="1" connectable="0" parent="SjPjZXcvxQbz7Kt5EvCA-31">
          <mxGeometry x="-0.0173" y="-2" relative="1" as="geometry">
            <mxPoint x="-2" y="-2" as="offset" />
          </mxGeometry>
        </mxCell>
        <mxCell id="SjPjZXcvxQbz7Kt5EvCA-47" style="edgeStyle=orthogonalEdgeStyle;rounded=0;orthogonalLoop=1;jettySize=auto;html=1;" edge="1" parent="1" source="SjPjZXcvxQbz7Kt5EvCA-30">
          <mxGeometry relative="1" as="geometry">
            <mxPoint x="650" y="1320" as="targetPoint" />
          </mxGeometry>
        </mxCell>
        <mxCell id="SjPjZXcvxQbz7Kt5EvCA-30" value="file ==NULL" style="rhombus;whiteSpace=wrap;html=1;" vertex="1" parent="1">
          <mxGeometry x="339.84" y="1280" width="93.44" height="80" as="geometry" />
        </mxCell>
        <mxCell id="SjPjZXcvxQbz7Kt5EvCA-36" style="edgeStyle=orthogonalEdgeStyle;rounded=0;orthogonalLoop=1;jettySize=auto;html=1;" edge="1" parent="1" source="SjPjZXcvxQbz7Kt5EvCA-35">
          <mxGeometry relative="1" as="geometry">
            <mxPoint x="160" y="1470" as="targetPoint" />
          </mxGeometry>
        </mxCell>
        <mxCell id="SjPjZXcvxQbz7Kt5EvCA-37" style="edgeStyle=orthogonalEdgeStyle;rounded=0;orthogonalLoop=1;jettySize=auto;html=1;" edge="1" parent="1" source="SjPjZXcvxQbz7Kt5EvCA-35">
          <mxGeometry relative="1" as="geometry">
            <mxPoint x="386.56000000000006" y="1580" as="targetPoint" />
          </mxGeometry>
        </mxCell>
        <mxCell id="SjPjZXcvxQbz7Kt5EvCA-43" value="True" style="edgeLabel;html=1;align=center;verticalAlign=middle;resizable=0;points=[];" vertex="1" connectable="0" parent="SjPjZXcvxQbz7Kt5EvCA-37">
          <mxGeometry x="-0.0731" y="1" relative="1" as="geometry">
            <mxPoint as="offset" />
          </mxGeometry>
        </mxCell>
        <mxCell id="SjPjZXcvxQbz7Kt5EvCA-35" value="buffer = fgetc(file)) != EOF" style="rhombus;whiteSpace=wrap;html=1;" vertex="1" parent="1">
          <mxGeometry x="286.47999999999996" y="1430" width="200.16" height="80" as="geometry" />
        </mxCell>
        <mxCell id="SjPjZXcvxQbz7Kt5EvCA-39" style="edgeStyle=orthogonalEdgeStyle;rounded=0;orthogonalLoop=1;jettySize=auto;html=1;" edge="1" parent="1" source="SjPjZXcvxQbz7Kt5EvCA-38" target="SjPjZXcvxQbz7Kt5EvCA-40">
          <mxGeometry relative="1" as="geometry">
            <mxPoint x="385" y="1690" as="targetPoint" />
          </mxGeometry>
        </mxCell>
        <mxCell id="SjPjZXcvxQbz7Kt5EvCA-38" value="Hiển thi danh sách SV lên màn hình" style="shape=parallelogram;perimeter=parallelogramPerimeter;whiteSpace=wrap;html=1;fixedSize=1;" vertex="1" parent="1">
          <mxGeometry x="305" y="1580" width="160" height="60" as="geometry" />
        </mxCell>
        <mxCell id="SjPjZXcvxQbz7Kt5EvCA-41" style="edgeStyle=orthogonalEdgeStyle;rounded=0;orthogonalLoop=1;jettySize=auto;html=1;" edge="1" parent="1" source="SjPjZXcvxQbz7Kt5EvCA-40" target="SjPjZXcvxQbz7Kt5EvCA-42">
          <mxGeometry relative="1" as="geometry">
            <mxPoint x="385" y="1790" as="targetPoint" />
          </mxGeometry>
        </mxCell>
        <mxCell id="SjPjZXcvxQbz7Kt5EvCA-40" value="Đóng file" style="rounded=0;whiteSpace=wrap;html=1;" vertex="1" parent="1">
          <mxGeometry x="325" y="1680" width="120" height="60" as="geometry" />
        </mxCell>
        <mxCell id="SjPjZXcvxQbz7Kt5EvCA-42" value="End" style="ellipse;whiteSpace=wrap;html=1;" vertex="1" parent="1">
          <mxGeometry x="325" y="1780" width="120" height="80" as="geometry" />
        </mxCell>
        <mxCell id="SjPjZXcvxQbz7Kt5EvCA-46" style="edgeStyle=orthogonalEdgeStyle;rounded=0;orthogonalLoop=1;jettySize=auto;html=1;entryX=1;entryY=0.5;entryDx=0;entryDy=0;" edge="1" parent="1" source="SjPjZXcvxQbz7Kt5EvCA-45" target="SjPjZXcvxQbz7Kt5EvCA-42">
          <mxGeometry relative="1" as="geometry">
            <Array as="points">
              <mxPoint x="640" y="1820" />
            </Array>
          </mxGeometry>
        </mxCell>
        <mxCell id="SjPjZXcvxQbz7Kt5EvCA-45" value="Khong the mo file" style="shape=parallelogram;perimeter=parallelogramPerimeter;whiteSpace=wrap;html=1;fixedSize=1;" vertex="1" parent="1">
          <mxGeometry x="560" y="1610" width="170" height="60" as="geometry" />
        </mxCell>
      </root>
    </mxGraphModel>
  </diagram>
</mxfile>
